<?xml version="1.0" encoding="UTF-8" standalone="no"?>
<!DOCTYPE svg PUBLIC "-//W3C//DTD SVG 1.1//EN"
 "http://www.w3.org/Graphics/SVG/1.1/DTD/svg11.dtd">
<!-- Generated by graphviz version 2.43.0 (0)
 -->
<!-- Title: sourcetree Pages: 1 -->
<svg width="282pt" height="260pt"
 viewBox="0.00 0.00 282.00 260.00" xmlns="http://www.w3.org/2000/svg" xmlns:xlink="http://www.w3.org/1999/xlink">
<g id="graph0" class="graph" transform="scale(1 1) rotate(0) translate(4 256)">
<title>sourcetree</title>
<polygon fill="white" stroke="transparent" points="-4,4 -4,-256 278,-256 278,4 -4,4"/>
<!-- mulle&#45;slug -->
<g id="node1" class="node">
<title>mulle&#45;slug</title>
<polygon fill="yellow" stroke="black" points="152.5,-252 61.5,-252 61.5,-216 152.5,-216 152.5,-252"/>
<text text-anchor="middle" x="107" y="-230.3" font-family="Times,serif" font-size="14.00">mulle&#45;slug</text>
</g>
<!-- mulle&#45;buffer -->
<g id="node5" class="node">
<title>mulle&#45;buffer</title>
<g id="a_node5"><a xlink:href="https://github.com/mulle-c/mulle-buffer" xlink:title="mulle&#45;buffer">
<polygon fill="lightgrey" stroke="black" points="104,-180 0,-180 0,-144 104,-144 104,-180"/>
<text text-anchor="middle" x="52" y="-158.3" font-family="Times,serif" font-size="14.00">mulle&#45;buffer</text>
</a>
</g>
</g>
<!-- mulle&#45;slug&#45;&gt;mulle&#45;buffer -->
<g id="edge3" class="edge">
<title>mulle&#45;slug&#45;&gt;mulle&#45;buffer</title>
<path fill="none" stroke="black" d="M93.4,-215.7C86.88,-207.39 78.93,-197.28 71.75,-188.14"/>
<polygon fill="black" stroke="black" points="74.37,-185.81 65.44,-180.1 68.87,-190.13 74.37,-185.81"/>
</g>
<!-- mulle&#45;utf -->
<g id="node7" class="node">
<title>mulle&#45;utf</title>
<g id="a_node7"><a xlink:href="https://github.com/mulle-c/mulle-utf" xlink:title="mulle&#45;utf">
<polygon fill="lightgrey" stroke="black" points="203.5,-180 122.5,-180 122.5,-144 203.5,-144 203.5,-180"/>
<text text-anchor="middle" x="163" y="-158.3" font-family="Times,serif" font-size="14.00">mulle&#45;utf</text>
</a>
</g>
</g>
<!-- mulle&#45;slug&#45;&gt;mulle&#45;utf -->
<g id="edge4" class="edge">
<title>mulle&#45;slug&#45;&gt;mulle&#45;utf</title>
<path fill="none" stroke="black" d="M120.84,-215.7C127.49,-207.39 135.58,-197.28 142.89,-188.14"/>
<polygon fill="black" stroke="black" points="145.8,-190.1 149.32,-180.1 140.34,-185.73 145.8,-190.1"/>
</g>
<!-- farmhash&#45;c -->
<g id="node2" class="node">
<title>farmhash&#45;c</title>
<g id="a_node2"><a xlink:href="https://github.com/mulle-c/farmhash-c@*" xlink:title="farmhash&#45;c">
<polygon fill="lightgrey" stroke="black" points="274,-36 178,-36 178,0 274,0 274,-36"/>
<text text-anchor="middle" x="226" y="-14.3" font-family="Times,serif" font-size="14.00">farmhash&#45;c</text>
</a>
</g>
</g>
<!-- mulle&#45;allocator -->
<g id="node3" class="node">
<title>mulle&#45;allocator</title>
<g id="a_node3"><a xlink:href="https://github.com/mulle-c/mulle-allocator" xlink:title="mulle&#45;allocator">
<polygon fill="lightgrey" stroke="black" points="161.5,-108 38.5,-108 38.5,-72 161.5,-72 161.5,-108"/>
<text text-anchor="middle" x="100" y="-86.3" font-family="Times,serif" font-size="14.00">mulle&#45;allocator</text>
</a>
</g>
</g>
<!-- mulle&#45;c11 -->
<g id="node4" class="node">
<title>mulle&#45;c11</title>
<g id="a_node4"><a xlink:href="https://github.com/mulle-c/mulle-c11" xlink:title="mulle&#45;c11">
<polygon fill="lightgrey" stroke="black" points="143,-36 57,-36 57,0 143,0 143,-36"/>
<text text-anchor="middle" x="100" y="-14.3" font-family="Times,serif" font-size="14.00">mulle&#45;c11</text>
</a>
</g>
</g>
<!-- mulle&#45;allocator&#45;&gt;mulle&#45;c11 -->
<g id="edge1" class="edge">
<title>mulle&#45;allocator&#45;&gt;mulle&#45;c11</title>
<path fill="none" stroke="black" d="M100,-71.7C100,-63.98 100,-54.71 100,-46.11"/>
<polygon fill="black" stroke="black" points="103.5,-46.1 100,-36.1 96.5,-46.1 103.5,-46.1"/>
</g>
<!-- mulle&#45;data -->
<g id="node6" class="node">
<title>mulle&#45;data</title>
<g id="a_node6"><a xlink:href="https://github.com/mulle-c/mulle-data" xlink:title="mulle&#45;data">
<polygon fill="lightgrey" stroke="black" points="272,-108 180,-108 180,-72 272,-72 272,-108"/>
<text text-anchor="middle" x="226" y="-86.3" font-family="Times,serif" font-size="14.00">mulle&#45;data</text>
</a>
</g>
</g>
<!-- mulle&#45;data&#45;&gt;farmhash&#45;c -->
<g id="edge2" class="edge">
<title>mulle&#45;data&#45;&gt;farmhash&#45;c</title>
<path fill="none" stroke="black" d="M226,-71.7C226,-63.98 226,-54.71 226,-46.11"/>
<polygon fill="black" stroke="black" points="229.5,-46.1 226,-36.1 222.5,-46.1 229.5,-46.1"/>
</g>
<!-- mulle&#45;utf&#45;&gt;mulle&#45;allocator -->
<g id="edge5" class="edge">
<title>mulle&#45;utf&#45;&gt;mulle&#45;allocator</title>
<path fill="none" stroke="black" d="M147.43,-143.7C139.8,-135.22 130.48,-124.86 122.12,-115.58"/>
<polygon fill="black" stroke="black" points="124.69,-113.2 115.39,-108.1 119.48,-117.88 124.69,-113.2"/>
</g>
<!-- mulle&#45;utf&#45;&gt;mulle&#45;data -->
<g id="edge6" class="edge">
<title>mulle&#45;utf&#45;&gt;mulle&#45;data</title>
<path fill="none" stroke="black" d="M178.57,-143.7C186.2,-135.22 195.52,-124.86 203.88,-115.58"/>
<polygon fill="black" stroke="black" points="206.52,-117.88 210.61,-108.1 201.31,-113.2 206.52,-117.88"/>
</g>
</g>
</svg>
